# xmcd
#
# Track frame offsets:
#	150
#	12223
#	24437
#	34127
#	48412
#	59700
#	72452
#	85258
#	100070
#	115087
#	126611
#	140934
#	150503
#	163251
#	177284
#	188486
#	199041
#	210833
#	225010
#	236937
#
# Disc length: 3683 seconds
#
# Revision: 1
# Processed by: cddbd v1.5.2PL0 Copyright (c) Steve Scherf et al.
# Submitted via: audiograbber 1.83.01
#
DISCID=130e6114
DTITLE=Benny Goodman - Life Goes To A Party Cd2
DYEAR=2005
DGENRE=Instrumental
TTITLE0=Remember
TTITLE1=These Foolish Things Remind Me Of You
TTITLE2=I've Found A New Baby
TTITLE3=Swingtime In The Rockies
TTITLE4=House Hop
TTITLE5=You Turned The Tables On Me
TTITLE6=Pick Yourself Up
TTITLE7=Down South Camp Meeting
TTITLE8=St. Louis Blues
TTITLE9=Bugle Call Rag
TTITLE10=Organ Grinder's Swing
TTITLE11=Alexander's Ragtime Band
TTITLE12=Somebody Loves Me
TTITLE13=Goodnight, My Love
TTITLE14=Take Another Guess
TTITLE15=Did You Mean It?
TTITLE16=I Want To Be Happy
TTITLE17=Chloe
TTITLE18=Rosetta
TTITLE19=Sing, Sing, Sing
EXTD=CD 2 - 4
EXTT0=
EXTT1=
EXTT2=
EXTT3=
EXTT4=
EXTT5=
EXTT6=
EXTT7=
EXTT8=
EXTT9=
EXTT10=
EXTT11=
EXTT12=
EXTT13=
EXTT14=
EXTT15=
EXTT16=
EXTT17=
EXTT18=
EXTT19=
PLAYORDER=
